<svg xmlns="http://www.w3.org/2000/svg" viewBox="0 0 183.8 187.64"><defs><style>.cls-1{fill:#fff;}</style></defs><title>Asset 1</title><g id="Layer_2" data-name="Layer 2"><g id="Layer_1-2" data-name="Layer 1"><rect class="cls-1" x="25.13" y="51.41" width="128.11" height="95.07"/><path d="M0,93.68C-.06,42,41.16,0,91.8,0s92.11,42.29,92,93.64c-.09,51.63-41.39,94-91.72,94C41.2,187.7.06,145.72,0,93.68Zm63.08.18c-2.9,3.21-5.56,6.16-8.21,9.12-4.56,5.07-9.3,10-13.61,15.26a10,10,0,0,0,1,13.57,8,8,0,0,0,11.31-.33c.11-.11.21-.23.31-.35Q68,116,81.73,100.48c3.46-3.9,3.61-9,.24-12.8C72.63,77.07,63.21,66.51,53.32,56.42c-1.8-1.83-6.5-2.57-8.91-1.56s-4.89,4.74-5.16,7.49,1.41,6.46,3.37,8.8C49,78.79,55.93,86,63.08,93.86ZM96.55,117v14.87h41.3V117Z"/></g></g></svg>