<svg xmlns="http://www.w3.org/2000/svg" viewBox="0 0 81.19 81.19"><defs><style>.cls-1{fill:#fff;}</style></defs><title>Asset 1</title><g id="Layer_2" data-name="Layer 2"><g id="Layer_1-2" data-name="Layer 1"><circle cx="40.59" cy="40.59" r="40.59"/><g id="gEzZAY"><path class="cls-1" d="M68.7,38.72v4a2.51,2.51,0,0,0-.2.56A27.88,27.88,0,0,1,48.29,67.57c-1.82.53-3.71.76-5.57,1.13H38.47a4.33,4.33,0,0,0-.7-.21c-11.85-1.57-19.81-8-23.83-19.23a52.89,52.89,0,0,1-1.45-6.54V38.47a4.29,4.29,0,0,0,.2-.7C14.25,26,20.67,18,31.84,14a50.18,50.18,0,0,1,6.63-1.49h4.25a4.18,4.18,0,0,0,.69.2C55.12,14.21,63,20.57,67.12,31.57A51.41,51.41,0,0,1,68.7,38.72ZM45.09,51.39c1.56,1.8,1.53,3.88,1.52,6,0,1.45,0,2.91,0,4.37,0,2.24.64,2.69,2.72,1.88a24.64,24.64,0,1,0-28.48-8.34A24,24,0,0,0,32.3,63.76c1.22.44,2.11.16,2.19-.8.12-1.46,0-3,0-4.47l-.78.12c-3.79.59-6.71-.8-7.9-4a9.72,9.72,0,0,0-2.42-2.91,4.69,4.69,0,0,0-1.3-.67c1.46-1,2.47-.78,3.27-.2A9.94,9.94,0,0,1,27.51,53,5.17,5.17,0,0,0,34,55a1.4,1.4,0,0,0,.7-.61c.43-1,.79-2,1.2-3l-2-.37a11.2,11.2,0,0,1-7-17.67,2.71,2.71,0,0,0,.28-1.35c.07-1.51.05-3,.15-4.55.07-1.19.89-1.43,1.85-1.06,1.5.58,3,1.31,4.44,1.91a3,3,0,0,0,1.59.26,24.37,24.37,0,0,1,10.65,0,3.7,3.7,0,0,0,1.93-.33c1.42-.55,2.79-1.26,4.22-1.8,1-.37,1.77-.12,1.85,1.06.09,1.52.08,3,.14,4.56,0,.38-.06.88.14,1.14,1.88,2.32,2.25,5,2.07,7.88-.32,5.16-3,8.5-8.07,9.78C47.21,51,46.27,51.15,45.09,51.39Z"/></g></g></g></svg>