<svg xmlns="http://www.w3.org/2000/svg" viewBox="0 0 86.23 86.23"><defs><style>.cls-1{fill:#fff;}</style></defs><title>Asset 2</title><g id="Layer_2" data-name="Layer 2"><g id="Layer_1-2" data-name="Layer 1"><circle cx="43.11" cy="43.11" r="43.11"/><g id="Hdtjcr"><path class="cls-1" d="M17.41,43.11c0-5.22,0-10.44,0-15.66a9.64,9.64,0,0,1,10-10H58.87a9.65,9.65,0,0,1,9.95,10q0,15.79,0,31.59A9.65,9.65,0,0,1,59,68.82q-15.93,0-31.86,0A9.64,9.64,0,0,1,17.41,59C17.39,53.73,17.41,48.42,17.41,43.11ZM29.54,52.6l-.7.33A4.46,4.46,0,0,0,26,57.46a4.55,4.55,0,0,0,3,4.35,11.74,11.74,0,0,0,8.49.29c2.44-.81,3.66-2.78,3.67-5.61,0-2.22-1-3.44-3.59-4.36-.76-.27-1.55-.41-2.31-.65a4.22,4.22,0,0,1-1.58-.65c-.42-.37-.9-1-.82-1.5s.71-1,1.19-1.39a3.05,3.05,0,0,1,1-.29,6.48,6.48,0,0,0,4.9-6.38c0-.69-.08-1.38-.09-1.67.62-.59,1.3-.93,1.36-1.35a27,27,0,0,0,.06-3.62L40.16,35a7.11,7.11,0,0,1-4.9,0,6.37,6.37,0,0,0-6.86,1.33,6.73,6.73,0,0,0,1,10.74C27.92,48.87,28,50.44,29.54,52.6ZM49.81,38.73h1.87v1.39c0,2.54,0,5.08,0,7.62.08,2.83,1.19,4.75,3.24,5.09a17.81,17.81,0,0,0,4.59-.23,1.1,1.1,0,0,0,.68-.79c.08-1.12,0-2.25,0-3.42-.61.17-1,.32-1.45.41-1.53.31-2.45-.21-2.51-1.74-.11-2.74,0-5.5,0-8.36h3.38V34.77H56.21V31.43H51.64v3.32l-1.83.14Zm-2.09,14V34.88H43.27V52.76ZM45.58,31.61a3,3,0,0,0,2.8-3,2.88,2.88,0,1,0-5.75,0A3,3,0,0,0,45.58,31.61Z"/><path class="cls-1" d="M35.64,41.36c0,1.82-.88,2.8-2.48,2.79s-2.5-1-2.48-2.91.91-2.93,2.52-2.91S35.64,39.5,35.64,41.36Z"/><path class="cls-1" d="M33.6,59.15a6.89,6.89,0,0,1-2.17-.5,2.42,2.42,0,0,1-1.1-1.71,2.1,2.1,0,0,1,1.12-1.66,13.9,13.9,0,0,1,3.92-.11,1.63,1.63,0,0,1,1.48,1.77,1.86,1.86,0,0,1-1.51,1.94A15.33,15.33,0,0,1,33.6,59.15Z"/></g></g></g></svg>