<svg xmlns="http://www.w3.org/2000/svg" viewBox="0 0 86.35 86.35"><defs><style>.cls-1{fill:#fff;}</style></defs><title>Asset 3</title><g id="Layer_2" data-name="Layer 2"><g id="Layer_1-2" data-name="Layer 1"><circle cx="43.18" cy="43.18" r="43.18"/><path class="cls-1" d="M42.88,25.5c1.51,1.54,3,3,4.45,4.5q8.56,8.58,17.16,17.14a2.62,2.62,0,0,1,.9,2.09c-.06,3.22,0,6.44,0,9.65,0,4.15-2.47,6.63-6.58,6.63q-16,0-32,0c-4.14,0-6.67-2.55-6.68-6.69,0-3.25,0-6.51,0-9.77a2.19,2.19,0,0,1,.47-1.38q10.94-11,21.91-21.94C42.59,25.68,42.67,25.65,42.88,25.5ZM49,53.35c0-2,0-4,0-6a2.14,2.14,0,0,0-2.41-2.37c-2.49,0-5,0-7.48,0a2.2,2.2,0,0,0-2.5,2.53q0,5.73,0,11.47c0,1.76.79,2.54,2.6,2.55,2.41,0,4.82,0,7.24,0,1.78,0,2.54-.78,2.56-2.59S49,55.2,49,53.35Z"/><path class="cls-1" d="M55.14,28.11V18.79c0-1.77.71-2.48,2.48-2.52h1.2c1.73,0,2.42.71,2.42,2.42,0,4.79,0,9.57,0,14.36a2.75,2.75,0,0,0,.9,2.22c2,1.95,4,4,6,6,1.07,1.08,1.16,2.28.27,3.17s-2,.8-3.14-.34Q54.53,33.36,43.83,22.64A11,11,0,0,1,43,21.53c-.5.46-.82.74-1.12,1L20.78,43.64c-.23.23-.44.47-.69.68a2,2,0,0,1-2.91,0,2,2,0,0,1,.06-2.83c1.1-1.17,2.25-2.29,3.39-3.43Q30.77,27.85,40.92,17.7c1.38-1.38,2.37-1.37,3.79,0l9.56,9.56C54.48,27.51,54.72,27.72,55.14,28.11Z"/></g></g></svg>