<svg xmlns="http://www.w3.org/2000/svg" viewBox="0 0 160.65 196.45"><defs><style>.cls-1{fill:#ef3b39;}.cls-2{fill:#231f20;}</style></defs><title>Asset 1</title><g id="Layer_2" data-name="Layer 2"><g id="Layer_1-2" data-name="Layer 1"><path class="cls-1" d="M159.71,195.56c-1.8-8.31-3.21-17.54-5.08-26.12-1.22-5.63-2.39-11.77.15-16.95l-6.26-.41,4.94-14.64-10.68,2.27c-1.17.25-2.58.43-3.41-.44-1.15-1.21-.15-3.17.87-4.49l7.9-10.33a4.55,4.55,0,0,0,1.22-2.54c0-1.79-1.93-3-3.71-3.14s-3.62.22-5.34-.28c-3.88-1.14-5-6.12-4.66-10.15s1.58-8.29-.12-12c-2.31-5-9.24-7.06-10.48-12.43-1.31-5.69,4.74-10.7,4.77-16.54a8.59,8.59,0,0,0-7.49-8.31c-1.55-.16-3.12.13-4.66,0s-3.2-1-3.69-2.43c-.43-1.29.15-2.67.71-3.9,2.12-4.64,4.47-10.6,6.59-15.24a89.67,89.67,0,0,0-60.19-36C47.66-.28,33.45,1.19,21.69,7.92S1.07,27.15.85,40.7C.61,55.78,10.5,69.05,21,79.87,53.2,113,95,135.07,130.66,164.39,140.92,172.8,153.75,186.49,159.71,195.56Z"/><path class="cls-2" d="M160.58,195.32c-1.41-6.65-2.55-13.35-3.84-20-1.43-7.42-4.13-15.22-1.09-22.56.24-.58-.36-1.1-.87-1.14l-6.26-.41.87,1.14,4.94-14.64a.91.91,0,0,0-1.11-1.11l-5.34,1.13c-2.37.51-4.78,1.94-6.46-.12s-.22-2.59,1.29-4.56l3.39-4.42c1.9-2.49,6.09-6.18,2.94-9.29-1.45-1.43-3.32-1.39-5.18-1.48-3.41-.16-6-1.14-7-4.75a14.28,14.28,0,0,1-.33-4.74c.33-5.48,1.87-10.41-2-15-4.78-5.67-11.31-7.59-7.14-16.51,1.81-3.87,4.36-7.87,2.82-12.3a9.64,9.64,0,0,0-7.89-6.31,24.83,24.83,0,0,0-3.11,0l-4.19-4c-.19-1,1.86-4.26,2.4-5.52,1.54-3.59,3-7.21,4.63-10.78a.88.88,0,0,0,0-.9A91.07,91.07,0,0,0,63.61,1C40.48-2.74,13.13,3.86,3,27.22-7.41,51,11.56,72.51,27.77,87.78c19.83,18.69,42.53,33.93,64.81,49.47,24,16.75,49.76,34.05,66.36,58.77.64.95,2.2,0,1.55-.91-19.16-28.54-50-47.59-77.7-66.85-16-11.16-32-22.48-46.72-35.37C22.62,81.1,6.29,66.71,2.51,48.36-1.74,27.74,13.82,9.85,32.77,4.19,50.78-1.19,71,2.37,87.66,10.5a89.48,89.48,0,0,1,21.85,15,88.58,88.58,0,0,1,8.35,9c2.25,2.8,2,3.93.69,7-1,2.35-2,4.73-3,7.08-1.82,4.23-4.93,10.19,1.89,11.34,2,.34,4-.31,6,.29a7.74,7.74,0,0,1,5.32,8.39c-.46,4.08-3.53,7.3-4.45,11.25-1.79,7.64,5.42,10,9.25,15.11,5,6.62-2.78,17.35,4.31,23.19a7.57,7.57,0,0,0,4.09,1.47c1.36.2,2.31-.26,3.63.29q3.56-.26,1.8,4.08l-1.13,1.48c-2,3.81-7.19,7-8.12,11.35-1.6,7.54,12.9,2,15.58,1.48l-1.1-1.11-4.95,14.64a.91.91,0,0,0,.87,1.14l6.26.41-.87-1.14c-2.74,6.62-1,13.29.4,20,1.61,7.83,2.87,15.72,4.54,23.53C159.09,196.93,160.82,196.45,160.58,195.32Z"/></g></g></svg>