<svg xmlns="http://www.w3.org/2000/svg" viewBox="0 0 209.05 155.34"><title>Asset 2</title><g id="Layer_2" data-name="Layer 2"><g id="Layer_1-2" data-name="Layer 1"><g id="Layer_1-2-2" data-name="Layer 1-2"><path d="M107.12,90.14c-4.51-.66-8.79-1.46-11.15-6.28-.48-1-3.12-.74-4.58-1.46-10.81-5.29-21.56-10.67-32.34-16a7.61,7.61,0,0,1,2.33.15c7.81,3.09,15.17,2.16,22.66-1.49a44.64,44.64,0,0,1,14.09-4.35c5.29-.59,8-3.17,9.9-8.44-1.93-.5-3.87-1.68-5.37-1.26-6.06,1.67-12,3.71-18,5.85-6.81,2.46-13.67,5-20.95,2.82-4.31-1.3-7-.42-8.73,3.79l4.18,3.06c-4.16-1.61-8.27-3.39-12.5-4.81-4.4-1.47-8.93-2.52-13.37-3.87A18.69,18.69,0,0,1,19.63,40.16c0-3.09-1.15-4-4.11-5.07C3.38,30.52-3.15,24.21,1.52,11.63,5,2.41,16.23-2.55,26.13,1.33c3.31,1.3,6.06,4,9.23,5.72a6.84,6.84,0,0,0,4.53.89c13.29-3.47,25.87,2.21,33.36,13.58,3.38,5.14,9.22,8.69,14,12.88,3.47,3,6.9,6.15,10.64,8.82,4.25,3,9,5.37,13.18,8.5,1.35,1,2.71,4.09,2.13,5.29A169.11,169.11,0,0,1,104,73c-1,1.56-2.93,2.47-4,4s-3.2,4.33-2.64,5.28c1.38,2.38,4,4.1,6.17,5.95a26.18,26.18,0,0,0,3.41,2.06ZM21.22,1.43C12.85,2.05,9.94,7.74,7.08,13.68a13,13,0,0,0,5.68,17.49c.29.14.59.28.9.41,1.23.5,3.17.92,4,.32a36,36,0,0,0,7.85-6.78,72.5,72.5,0,0,0,7.85-12.45c.73-1.46.25-4.91-.88-5.67C29.07,4.68,25,3.22,21.22,1.43Zm11.4,24.11L62.88,40.86c2.84-3.89.83-6.66-1.24-8.61-6-5.64-12.71-9.93-21.12-11.58C36.28,19.79,34.17,20.67,32.62,25.54Zm36.55,6c.67-1.73,2-3.49,1.62-4.47C68.64,22.15,67,16.32,61.2,14.59a149.72,149.72,0,0,0-19.09-3.85c-3.13-.5-4.84,1.11-4.07,4.94,11.59,2.23,22.6,6.08,31.13,15.89ZM60.26,43.27c-9.67-5.45-18.79-10.65-28-15.71-.79-.44-2.63-.42-3,.07A4,4,0,0,0,28.85,31a28.28,28.28,0,0,0,16.3,13.9C50,46.65,55,48.25,60.26,43.3Zm40.55,5.1c-2-3.17-5.2-4.08-8.87-3S84.77,48.1,81.1,49.19s-7.37,2.56-11,2.41c-4.46-.18-6.94,1.15-8.21,5.53,7.94,3.52,15.38,1.48,22.71-1.65,5.25-2.21,10.46-4.55,16.19-7.08ZM52.43,53.11C40.1,51.32,30.35,45.72,23.15,34.73c-.75,7.57,1.19,13.49,7.06,16.84,4.76,2.72,10.31,4.08,15.57,5.86,3.51,1.21,5.86-.06,6.65-4.29Zm48.22,8-28,9.32c4.9,3.41,9.1,4.5,13.64.75,1.09-.9,3-1,4.55-1.07,5.1,0,7.78-2.86,9.81-9ZM94.37,43.24c-2.48-4.34-5.31-4.62-8.94-3-3.36,1.44-6.85,3.15-10.4,3.48-4.06.38-6.44,2-8,6,10.63,3.39,17.47-7,27.34-6.44Z"/><path d="M111.1,101.47c-5.28,4.41-10.71,8.66-15.78,13.3-3.14,2.88-5.35,6.91-8.74,9.35-2,1.47-6.09,2-8.3,1-3.67-1.72-6.56-5.1-6.06-9.9a6,6,0,0,1,5.94-5.79c2.14-.11,4.35,1.17,6.46,2.5,10.49-3.64,14.46-14.76,22.5-21.75l-.16.17c5.79-2.53,11.66-4.89,17.31-7.7,1.19-.59,2-2.75,2.23-4.31.64-4,.88-8,1.29-12l2-1-12.3-9.68c2.22-.76,4.49,0,8.11,3.38,6.16,5.82,6.25,5.81,10.93-1.44,6.53-10.1,8.45-15.32,8-21.61-6.72-2-8.2-4.4-5.95-9.46,2.06-4.65,6-7.29,9.58-6.35,4.25,1.13,8.84,8.09,7.14,13.34-2.51,7.78-6.44,15.13-9.91,22.59-.91,2-2.36,3.67-4.46,6.85l17.67-1,.14,1.32c-4.45.36-9,1.26-13.35.93-4.65-.35-6.78,1.39-6.85,5.69-.11,6.71.09,13.43.16,20.3-10.34-1.11-19.23,4.44-27.59,11.32Zm18.22-17.36c-14.5.32-23.58,8.6-31.44,19.08-4,5.33-8.56,10.27-14.24,11.46l-4.35-4.2c-.94,1.4-2.94,3.22-2.59,4.11.6,1.53,2.59,2.61,4.17,3.61.41.25,1.54-.34,2.17-.79,5.91-4.27,11.82-8.57,17.67-12.93,3.44-2.57,6.5-5.81,10.24-7.8,7.57-4,15.48-7.36,23.59-11.14-1.18-13.54,4.31-25.59,12-37.13a22.4,22.4,0,0,0,3.16-18.44,6.31,6.31,0,0,0-4-3.92c-1.63-.32-3.81.9-5.38,2-.65.45-.7,2.43-.34,3.48A3,3,0,0,0,142.52,33c6.35-1.63,5.13,2.77,4.3,5.79C144.12,48.59,140.09,58,133,65.28,127.72,70.8,127.18,76.53,129.32,84.11Z"/><path d="M111.09,101.47c5-1.13,6.3,3.3,8.09,6.14,1.55,2.47,1.81,5.74,2.83,9.3,4.51-2.38,9.15-4.64,13.6-7.23,4.27-2.49,8.13-5.77,12.56-7.91,6.54-3.18,8.29-8.61,8.82-15.12.56-6.85,1.3-13.7,2.22-20.51.19-1.44,1.51-2.73,2.36-4.17,7.79,6.85,15.08,13.06,22.1,19.57,2.38,2.2,3.89,2.26,5.7-.31,2.73-3.86,5.52-7.69,8.22-11.46,2.15,6.86-2.85,18.71-9.24,24.46-9.72,8.73-19.11,17.82-25.55,29.53-3.5,6.36-6.72,12.68-6.93,20-.1,3.41.45,6.84.8,11.58-3.9-6.88-7.66-12.7-6.86-19.9.36-3.29-.5-4.47-3.38-5.54-9.14-3.39-18.18-7.06-27.21-10.6.4-7.48-3.37-12.91-8.12-17.88Zm59.5,6.47c-4.44-2.45-8.38-4.92-12.58-6.78a7.8,7.8,0,0,0-6-.09c-5.06,2.68-9.8,6-14.7,9-4.38,2.68-8.81,5.27-14.48,8.66l33,13.13ZM162.51,65c-.47,3.18-.7,5.22-1.07,7.23-1.36,7.33-2.89,14.63-4,22a5.16,5.16,0,0,0,1.79,4.21c3.31,2.21,7.06,3.73,10.44,5.84,2.62,1.63,4.48,1.53,6.69-.79,3.94-4.16,8.27-8,12.19-12.12.51-.53,0-2.86-.82-3.65-2.68-2.72-5.7-5.09-8.55-7.65C173.79,75.31,168.55,70.5,162.51,65Z"/><path d="M192.18,53.12c-1.78-5-3.85-10-5.23-15.18-.92-3.44,1-6.11,4.64-6.08,3.82,0,4.4,3.21,4,6.26-.63,4.87-1.54,9.69-2.34,14.53Z"/><path d="M188.55,59.05c-5.12-3.77-10.42-7.33-15.23-11.46-1.22-1-.91-3.88-1.3-5.9,1.74.32,3.83.15,5.14,1.08a26.61,26.61,0,0,1,5.58,5.78c2.33,3.15,4.31,6.56,6.44,9.86Z"/><path d="M203.79,60.37c2.38-6.89-2.11-14.65,2.32-21.68C211,44.39,209.59,55.09,203.79,60.37Z"/></g></g></g></svg>