<svg xmlns="http://www.w3.org/2000/svg" viewBox="0 0 10.79 10.79"><defs><style>.cls-1{fill:#fff;}</style></defs><title>Asset 2</title><g id="Layer_2" data-name="Layer 2"><g id="Layer_1-2" data-name="Layer 1"><circle cx="5.4" cy="5.4" r="5.4"/><g id="FN03sB"><path class="cls-1" d="M1.78,6.81c.21-.37.43-.74.65-1.11l.76-1.32.12-.19a.34.34,0,0,1,.6,0c.09.12.15.25.23.37l.12.21.31-.53c.2-.33.39-.66.58-1A1.37,1.37,0,0,1,5.28,3a.34.34,0,0,1,.57,0,3.66,3.66,0,0,1,.26.42C6.55,4.22,7,5,7.41,5.73l.09.14c.08-.13.14-.25.21-.37s.38-.27.53,0,.46.78.69,1.18c0,0,.06.08.09.13v0H1.78Z"/></g></g></g></svg>