<svg xmlns="http://www.w3.org/2000/svg" viewBox="0 0 153.94 110.34"><title>Asset 1</title><g id="Layer_2" data-name="Layer 2"><g id="Layer_1-2" data-name="Layer 1"><g id="Layer_1-2-2" data-name="Layer 1-2"><path d="M10,66.68C3.5,58.25,6.2,41.93,13.08,34c6.69-7.73,13.38-15.47,19.7-23.5C35.05,7.59,36.23,3.83,38.15,0,37.36,5.48,36.44,10.49,36,15.54c-.13,1.71.49,4.24,1.7,5.2C53.24,33,68.93,45.06,84.53,57.22,91.84,62.93,98.9,69,106.33,74.5c10.25,7.63,20.77,14.9,31.12,22.38,5.55,4,11,8.14,16.49,12.22l-.66,1.24a57,57,0,0,0-6.07-3c-16.6-5.85-33.27-11.49-49.83-17.45C86.53,86,75.82,81.72,65.06,77.57c-10.45-4-20.93-8-31.31-12.23-5.48-2.22-10.71-5-16.18-7.27-1.92-.79-5.73-1.49-6-.89-1.12,2.2-1.13,5-1.53,7.51A18.88,18.88,0,0,0,10,66.68Zm5.5-34c-2.71,5.46-5.08,9.72-6.95,14.18-1.4,3.32-.2,5.58,3.49,7C19.68,56.66,27.14,60,34.69,63,50.27,69.35,65.84,75.69,81.5,81.78c1.67.65,4-.31,6-.53a44.87,44.87,0,0,0-1.92-5.88,6,6,0,0,0-2.49-2.1Q65.45,62.59,47.75,52C37.34,45.76,26.94,39.55,15.5,32.7Zm77.69,34L29.44,17.21,17,31.47c4.49,2.39,8.6,4.42,12.56,6.71,12.18,7,24.25,14.3,36.47,21.27,6.25,3.56,12.75,6.65,19.11,10,3.34,1.76,5.74.81,8.1-2.77Zm29.17,24.43.63-.79c-6.88-5.45-14-10.63-20.54-16.45-3.91-3.46-7-4.8-10.92-.16Zm-11.14,0,.46-1.25c-5.24-3.31-10.42-6.73-15.78-9.82-1-.58-2.8.18-4.23.32.66,1.24,1,3.08,2,3.62,3.8,2,7.79,3.65,11.77,5.3,1.88.74,3.86,1.21,5.78,1.81Z"/><path d="M17.09,85.54c3.1,3.12,6.06,6.11,9,9.09.55.54,1.66.93,1.73,1.5.36,2.78,1.61,7.27.44,8.07-3.3,2.25-5.54-.94-6.61-3.84C19.9,95.49,18.61,90.44,17.09,85.54Z"/><path d="M27.82,79.21c4.39,2,9,3.81,13.07,6.33,1.32.82,1.4,3.66,2,5.58-1.89-.06-4.29.6-5.57-.32-2.38-1.7-4.1-4.32-6.12-6.54-1.27-1.41-2.59-2.77-3.88-4.16Z"/><path d="M4,82.34c.56,3.44,1.37,7.44,1.79,11.49a9.94,9.94,0,0,1-1,4.85c-.19.44-2.67.58-2.95.14C1,97.3-.29,95.27.06,93.82A108.14,108.14,0,0,1,4,82.34Z"/></g></g></g></svg>