<svg xmlns="http://www.w3.org/2000/svg" viewBox="0 0 132.53 208.12"><defs><style>.cls-1{fill:#ef3b39;}.cls-2{fill:#231f20;}</style></defs><title>Asset 2</title><g id="Layer_2" data-name="Layer 2"><g id="Layer_1-2" data-name="Layer 1"><path class="cls-1" d="M47.9,207.23c-1.8-8.31-4.47-17.21-6.33-25.79-1.23-5.63-2.4-11.77.14-16.94l-6.26-.41,4.95-14.65-10.68,2.27c-1.18.25-2.59.43-3.42-.44-1.15-1.21-.15-3.16.87-4.49l7.91-10.32a4.6,4.6,0,0,0,1.21-2.55c.05-1.78-1.93-3-3.71-3.14s-3.62.23-5.33-.28c-3.88-1.14-5.05-6.12-4.67-10.15s1.58-8.29-.11-12c-2.31-5-9.25-7.06-10.49-12.42-1.31-5.7,4.74-10.71,4.78-16.55a8.61,8.61,0,0,0-7.5-8.31c-1.54-.15-3.11.13-4.66,0S1.4,70.12.91,68.64c-.42-1.28.15-2.67.71-3.9C3.75,60.1,7.35,53.81,9.47,49.17,11.66,36.7,21.23,27.46,30,18.31,40.61,7.18,48.88,4.62,61.3,2.18,73.57-.24,90.09,1.05,102.08,4.61s23,12,27.41,23.66c3.64,9.63,2.54,20.55-1,30.22s-9.38,18.32-15.29,26.75c-19.83,28.3-41.46,55.84-55,87.65A159.87,159.87,0,0,0,47.9,207.23Z"/><path class="cls-2" d="M48.77,207c-1.51-6.78-3.39-13.48-5-20.24-1.76-7.16-4.1-14.89-1.15-22,.24-.58-.35-1.1-.87-1.13l-6.26-.41.87,1.13,4.94-14.64c.24-.69-.48-1.24-1.1-1.11l-6.23,1.33c-1.08.22-2.49.89-3.56.75-.73-.09-3.2-1-3.15-2.32s3.34-4.51,4.11-5.52a73.16,73.16,0,0,0,4.52-5.9c2.21-3.58.95-6.25-3.27-7-3.59-.68-6.48.78-8.38-3.76a12.84,12.84,0,0,1-.72-5.77c.24-3.83,1.43-7.62.13-11.4-2.09-6.1-10.72-8-10.71-14.91,0-6.24,6.55-11,4.21-17.62a9.66,9.66,0,0,0-4.22-5A9.37,9.37,0,0,0,9.5,70.23c-.58-.08-1.21,0-1.79-.07l-1.56,0L2,66.25c-.19-1.2,2.58-5.4,3.2-6.61.9-1.73,1.82-3.45,2.71-5.19a62.88,62.88,0,0,0,3.62-9.57c2.8-8.33,8.79-15.07,14.72-21.34C31.65,17.79,37.12,12,44.28,8.32,50.82,5,58.46,3.26,65.7,2.39c15.35-1.87,33.74-.21,47.17,8,16.46,10,21.26,28.38,15.32,46.25C122.57,73.51,110.17,88,100,102.3,77.11,134.31,54.28,167.57,47,207c-.21,1.14,1.52,1.62,1.73.48,7.45-40.49,31.38-74.36,54.84-107.18,10.56-14.77,23.56-30.06,27.72-48.16,3.61-15.67-.91-31.08-14-40.86S86.15-.71,70.37.18C56.08,1,42.23,5.23,31.76,15.25c-6.14,5.87-12.34,12.26-17.08,19.33A41.24,41.24,0,0,0,9.76,44.4,92.17,92.17,0,0,1,4,58C2.09,61.65-3.36,69.25,3,71.61c4.33,1.6,9.12-1,12,4.37s-1.77,9.9-3.34,14.63c-2.49,7.48,3.22,10.43,7.77,15.12,6.62,6.8-2.05,18.06,5.22,24.29a7,7,0,0,0,4.16,1.6c3.64.36,7.72-.35,5,5.12-2,4.06-7.84,7.49-8.68,12.09-1.38,7.54,12.66,2.1,15.57,1.48l-1.1-1.11-4.94,14.65a.91.91,0,0,0,.86,1.14l6.26.41-.87-1.14c-2.61,6.31-1.2,12.83.27,19.26,1.83,8,4.13,15.92,5.93,23.95C47.29,208.6,49,208.13,48.77,207Z"/></g></g></svg>