<svg id="Layer_1" data-name="Layer 1" xmlns="http://www.w3.org/2000/svg" viewBox="0 0 292.95 268.29"><defs><style>.cls-1{fill:#ed1c24;}</style></defs><title>bigF</title><path class="cls-1" d="M144.72,145.74l.55-4.66h11.89q8-17.45,16.44-35.28a295.2,295.2,0,0,1,18.52-33.53A163.83,163.83,0,0,1,214.5,44.35,74.3,74.3,0,0,1,242,26.71v-.78q-7.19,0-14.65-.19t-16.16-.58q-8.72-.39-19.35-.58t-24.18-.2q-27.36,0-49.75,6.59T79.63,49.59A88.65,88.65,0,0,0,54.9,77.69a77.12,77.12,0,0,0-9.4,35.48q-.55,18.61,9.54,29.66t27.49,11a57.36,57.36,0,0,0,23.22-5.24,72,72,0,0,0,21.56-14.73,78.36,78.36,0,0,0,15.89-22.68,66.44,66.44,0,0,0,6.22-28.69,76.31,76.31,0,0,0-.83-11.82q-.84-5.23-1.66-9.5l2.76-.78a82.87,82.87,0,0,1,3,22.49,69.36,69.36,0,0,1-5.8,27.52,86.13,86.13,0,0,1-15.48,24.24,78.43,78.43,0,0,1-22.52,17.25,57.67,57.67,0,0,1-26.67,6.59q-18.53,0-29.3-11.63T42.18,114.33a86.28,86.28,0,0,1,10.37-40.9q10.37-19.58,30-34.7t48.23-24q28.61-8.91,65.09-8.92,24.32,0,42.42.78t27,.78a76.7,76.7,0,0,0,11.47-.78,61.75,61.75,0,0,1,9.25-.78,39.53,39.53,0,0,1,9.4,1q3.87,1,3.87,6.79a17.44,17.44,0,0,1-1.38,7.75c-.93,1.81-3.18,3.1-6.77,3.88a89.33,89.33,0,0,1-15.89,1.36q-10.51.19-28.47.19a81.1,81.1,0,0,0-26.81,21.52,161.73,161.73,0,0,0-18.65,29.08,337.42,337.42,0,0,0-14.1,32.18,282.15,282.15,0,0,1-13.68,30.82,58,58,0,0,1,8.43-1.17Q187,138.76,192,138A76.94,76.94,0,0,0,201.1,136q4.14-1.15,5.25-3.49a75.32,75.32,0,0,1,5.94-9.3,11,11,0,0,1,9.26-4.65,16.2,16.2,0,0,1,6.91,1.55,275.28,275.28,0,0,0-21.28,29.27,269.15,269.15,0,0,0-18,33.53l-1.65-1.16a175.78,175.78,0,0,1,6.63-20.74q3.87-9.88,7.74-20-3.6.78-7.88,1.36l-8.43,1.16c-2.76.39-5.34.72-7.74,1s-4.33.52-5.8.78q-9.95,23.27-21.42,46.13a258.41,258.41,0,0,1-25.56,41.3,128.9,128.9,0,0,1-31.51,29.85,69.87,69.87,0,0,1-39.25,11.44,52,52,0,0,1-15.89-2.72,47.85,47.85,0,0,1-15.61-8.53A46.3,46.3,0,0,1,11,248.09q-4.69-8.91-4.69-21.32a32.61,32.61,0,0,1,3.17-14.35q3.18-6.58,9.26-6.59a7.48,7.48,0,0,1,6.77,3.88,18.35,18.35,0,0,1,2.35,9.69,22.07,22.07,0,0,1-1.93,9.5Q23.95,233,20.07,233a8.37,8.37,0,0,1-2.76-.39q0,1.17.69,7.17a34.94,34.94,0,0,0,4.28,12.61q3.6,6.58,11.47,11.82t22,5.23q18,0,32.88-12.6A142.06,142.06,0,0,0,115.7,225.6a296.41,296.41,0,0,0,22-40.32q9.81-21.71,17.83-39.54Z" transform="translate(-6.26 -5.77)"/></svg>